
CASCADE Topology V1, (c) Matra-Datavision
Locations 0
Curve2ds 4
1 6.2831853071795862 37.5 -1 0 
1 -0.78539816339744828 0 0 -1 
1 -6.2831853071795862 -12.5 1 0 
1 0.78539816339744828 0 0 1 
Curves 30
2 50 15 25 -1 0 0 0 -0.70710678118654757 0.70710678118654757 0 0.70710678118654757 0.70710678118654757 15
1 12.5 15 40 -1 0 0 
2 0 15 25 1 0 0 0 -0.70710678118654757 0.70710678118654757 0 -0.70710678118654757 -0.70710678118654757 15
1 12.5 0 25 1 0 0 
1 50 0 40 0 1 0 
1 50 50 40 -1 0 0 
1 0 50 40 0 -1 0 
1 50 0 0 0 0 1 
1 50 0 0 0 1 0 
1 50 50 0 0 0 1 
1 50 50 0 -1 0 0 
1 0 50 0 0 0 1 
1 0 0 0 0 0 1 
1 0 0 0 1 0 0 
1 0 50 0 0 -1 0 
2 51 15 25 -1 0 0 0 -0.70710678118654757 0.70710678118654757 0 0.70710678118654757 0.70710678118654757 15
1 13.5 15 40 -1 0 0 
2 1 15 25 1 0 0 0 -0.70710678118654757 0.70710678118654757 0 -0.70710678118654757 -0.70710678118654757 15
1 13.5 0 25 1 0 0 
1 51 0 40 0 1 0 
1 51 50 40 -1 0 0 
1 1 50 40 0 -1 0 
1 51 0 0 0 0 1 
1 51 0 0 0 1 0 
1 51 50 0 0 0 1 
1 51 50 0 -1 0 0 
1 1 50 0 0 0 1 
1 1 0 0 0 0 1 
1 1 0 0 1 0 0 
1 1 50 0 0 -1 0 
Polygon3D 0
PolygonOnTriangulations 0
Surfaces 14
2 12.5 15 25 1 0 0 0 -0.70710678118654757 0.70710678118654757 0 -0.70710678118654757 -0.70710678118654757 15
1 50 0 0 1 0 0 -0 1 0 0 -0 1 
1 25 25 40 0 0 1 1 0 -0 -0 1 0 
1 0 50 0 -1 0 0 0 -1 0 0 0 1 
1 0 0 0 0 -1 0 1 0 0 -0 0 1 
1 50 50 0 0 1 0 -1 0 0 0 -0 1 
1 25 25 0 0 0 1 1 0 -0 -0 1 0 
2 13.5 15 25 1 0 0 0 -0.70710678118654757 0.70710678118654757 0 -0.70710678118654757 -0.70710678118654757 15
1 26 25 40 0 0 1 1 0 0 0 1 0 
1 1 0 0 0 -1 0 1 0 0 0 0 1 
1 51 0 0 1 0 0 0 1 0 0 0 1 
1 51 50 0 0 1 0 -1 0 0 0 0 1 
1 1 50 0 -1 0 0 0 -1 0 0 0 1 
1 26 25 0 0 0 1 1 0 0 0 1 0 
Triangulations 0

TShapes 82
Ve
1e-07
50 0 25
0 0

0101101
*
Ve
1e-07
50 15 40
0 0

0101101
*
Ed
 1e-07 1 1 0
1  1 0 5.49778714378214 7.06858347057703
2  1 1 0 5.49778714378214 7.06858347057703
4 C0 1 0 2 0
0

0101000
+82 0 -81 0 *
Ve
1e-07
0 15 40
0 0

0101101
*
Ed
 1e-07 1 1 0
1  2 0 -37.5 12.5
2  2 1 0 -37.5 12.5
4 G1 1 0 3 0
0

0101000
+81 0 -79 0 *
Ve
1e-07
0 0 25
0 0

0101101
*
Ed
 1e-07 1 1 0
1  3 0 5.49778714378214 7.06858347057703
2  3 1 0 5.49778714378214 7.06858347057703
4 C0 1 0 4 0
0

0101000
+79 0 -77 0 *
Ed
 1e-07 1 1 0
1  4 0 -12.5 37.5
2  4 1 0 -12.5 37.5
4 G1 1 0 5 0
0

0101000
+77 0 -82 0 *
Wi

0101100
+80 0 +78 0 +76 0 +75 0 *
Fa
0  1e-07 1 0

0111000
+74 0 *
Ve
1e-07
50 50 40
0 0

0101101
*
Ed
 1e-07 1 1 0
1  5 0 15 50
4 C0 3 0 2 0
0

0101000
+81 0 -72 0 *
Ve
1e-07
0 50 40
0 0

0101101
*
Ed
 1e-07 1 1 0
1  6 0 0 50
4 C0 3 0 6 0
0

0101000
+72 0 -70 0 *
Ed
 1e-07 1 1 0
1  7 0 0 35
4 C0 3 0 4 0
0

0101000
+70 0 -79 0 *
Wi

0101100
-78 0 +71 0 +69 0 +68 0 *
Fa
0  1e-07 3 0

0111000
+67 0 *
Ve
1e-07
50 0 0
0 0

0101101
*
Ed
 1e-07 1 1 0
1  8 0 0 25
4 C0 2 0 5 0
0

0101000
+65 0 -82 0 *
Ve
1e-07
50 50 0
0 0

0101101
*
Ed
 1e-07 1 1 0
1  9 0 0 50
4 C0 2 0 7 0
0

0101000
+65 0 -63 0 *
Ed
 1e-07 1 1 0
1  10 0 0 40
4 C0 2 0 6 0
0

0101000
+63 0 -72 0 *
Wi

0101100
-80 0 -64 0 +62 0 +61 0 -71 0 *
Fa
0  1e-07 2 0

0111000
+60 0 *
Ve
1e-07
0 50 0
0 0

0101101
*
Ed
 1e-07 1 1 0
1  11 0 0 50
4 C0 6 0 7 0
0

0101000
+63 0 -58 0 *
Ed
 1e-07 1 1 0
1  12 0 0 40
4 C0 6 0 4 0
0

0101000
+58 0 -70 0 *
Wi

0101100
+57 0 +56 0 -69 0 -61 0 *
Fa
0  1e-07 6 0

0111000
+55 0 *
Ve
1e-07
0 0 0
0 0

0101101
*
Ed
 1e-07 1 1 0
1  13 0 0 25
4 C0 5 0 4 0
0

0101000
+53 0 -77 0 *
Ed
 1e-07 1 1 0
1  14 0 0 50
4 C0 5 0 7 0
0

0101000
+53 0 -65 0 *
Wi

0101100
-75 0 -52 0 +51 0 +64 0 *
Fa
0  1e-07 5 0

0111000
+50 0 *
Ed
 1e-07 1 1 0
1  15 0 0 50
4 C0 4 0 7 0
0

0101000
+58 0 -53 0 *
Wi

0101100
-76 0 -68 0 -56 0 +48 0 +52 0 *
Fa
0  1e-07 4 0

0111000
+47 0 *
Wi

0101100
-48 0 -57 0 -62 0 -51 0 *
Fa
0  1e-07 7 0

0111000
-45 0 *
Sh

0101100
+73 0 +66 0 +59 0 +54 0 +49 0 +46 0 -44 0 *
So

0100000
+43 0 *
Ve
1e-07
51 0 25
0 0

0101101
*
Ve
1e-07
51 15 40
0 0

0101101
*
Ed
 1e-07 1 1 0
1  16 0 5.49778714378214 7.06858347057703
2  1 8 0 5.49778714378214 7.06858347057703
0

0101000
+41 0 -40 0 *
Ve
1e-07
1 15 40
0 0

0101101
*
Ed
 1e-07 1 1 0
1  17 0 -37.5 12.5
2  2 8 0 -37.5 12.5
4 G1 8 0 9 0
0

0101000
+40 0 -38 0 *
Ve
1e-07
1 0 25
0 0

0101101
*
Ed
 1e-07 1 1 0
1  18 0 5.49778714378214 7.06858347057703
2  3 8 0 5.49778714378214 7.06858347057703
0

0101000
+38 0 -36 0 *
Ed
 1e-07 1 1 0
1  19 0 -12.5 37.5
2  4 8 0 -12.5 37.5
4 G1 8 0 10 0
0

0101000
+36 0 -41 0 *
Wi

0101100
+39 0 +37 0 +35 0 +34 0 *
Fa
0  1e-07 8 0

0111000
+33 0 *
Ve
1e-07
51 50 40
0 0

0101101
*
Ed
 1e-07 1 1 0
1  20 0 15 50
0

0101000
+40 0 -31 0 *
Ve
1e-07
1 50 40
0 0

0101101
*
Ed
 1e-07 1 1 0
1  21 0 0 50
0

0101000
+31 0 -29 0 *
Ed
 1e-07 1 1 0
1  22 0 0 35
0

0101000
+29 0 -38 0 *
Wi

0101100
-37 0 +30 0 +28 0 +27 0 *
Fa
0  1e-07 9 0

0111000
+26 0 *
Ve
1e-07
51 0 0
0 0

0101101
*
Ed
 1e-07 1 1 0
1  23 0 0 25
0

0101000
+24 0 -41 0 *
Ve
1e-07
51 50 0
0 0

0101101
*
Ed
 1e-07 1 1 0
1  24 0 0 50
0

0101000
+24 0 -22 0 *
Ed
 1e-07 1 1 0
1  25 0 0 40
0

0101000
+22 0 -31 0 *
Wi

0101100
-39 0 -23 0 +21 0 +20 0 -30 0 *
Fa
0  1e-07 11 0

0111000
+19 0 *
Ve
1e-07
1 50 0
0 0

0101101
*
Ed
 1e-07 1 1 0
1  26 0 0 50
0

0101000
+22 0 -17 0 *
Ed
 1e-07 1 1 0
1  27 0 0 40
0

0101000
+17 0 -29 0 *
Wi

0101100
+16 0 +15 0 -28 0 -20 0 *
Fa
0  1e-07 12 0

0111000
+14 0 *
Ve
1e-07
1 0 0
0 0

0101101
*
Ed
 1e-07 1 1 0
1  28 0 0 25
0

0101000
+12 0 -36 0 *
Ed
 1e-07 1 1 0
1  29 0 0 50
0

0101000
+12 0 -24 0 *
Wi

0101100
-34 0 -11 0 +10 0 +23 0 *
Fa
0  1e-07 10 0

0111000
+9 0 *
Ed
 1e-07 1 1 0
1  30 0 0 50
0

0101000
+17 0 -12 0 *
Wi

0101100
-35 0 -27 0 -15 0 +7 0 +11 0 *
Fa
0  1e-07 13 0

0111000
+6 0 *
Wi

0101100
-7 0 -16 0 -21 0 -10 0 *
Fa
0  1e-07 14 0

0111000
-4 0 *
Sh

0101100
+32 0 +25 0 +18 0 +13 0 +8 0 +5 0 -3 0 *
So

1100000
+2 0 *

