
CASCADE Topology V1, (c) Matra-Datavision
Locations 0
Curve2ds 4
1 6.2831853071795862 37.5 -1 0 
1 -0.78539816339744828 0 0 -1 
1 -6.2831853071795862 -12.5 1 0 
1 0.78539816339744828 0 0 1 
Curves 15
2 50 15 25 -1 0 0 0 -0.70710678118654757 0.70710678118654757 0 0.70710678118654757 0.70710678118654757 15
1 12.5 15 40 -1 0 0 
2 0 15 25 1 0 0 0 -0.70710678118654757 0.70710678118654757 0 -0.70710678118654757 -0.70710678118654757 15
1 12.5 0 25 1 0 0 
1 50 0 40 0 1 0 
1 50 50 40 -1 0 0 
1 0 50 40 0 -1 0 
1 50 0 0 0 0 1 
1 50 0 0 0 1 0 
1 50 50 0 0 0 1 
1 50 50 0 -1 0 0 
1 0 50 0 0 0 1 
1 0 0 0 0 0 1 
1 0 0 0 1 0 0 
1 0 50 0 0 -1 0 
Polygon3D 0
PolygonOnTriangulations 0
Surfaces 7
2 12.5 15 25 1 0 0 0 -0.70710678118654757 0.70710678118654757 0 -0.70710678118654757 -0.70710678118654757 15
1 50 0 0 1 0 0 -0 1 0 0 -0 1 
1 25 25 40 0 0 1 1 0 -0 -0 1 0 
1 0 50 0 -1 0 0 0 -1 0 0 0 1 
1 0 0 0 0 -1 0 1 0 0 -0 0 1 
1 50 50 0 0 1 0 -1 0 0 0 -0 1 
1 25 25 0 0 0 1 1 0 -0 -0 1 0 
Triangulations 0

TShapes 41
Ve
1e-07
50 0 25
0 0

0101101
*
Ve
1e-07
50 15 40
0 0

0101101
*
Ed
 1e-07 1 1 0
1  1 0 5.49778714378214 7.06858347057703
2  1 1 0 5.49778714378214 7.06858347057703
4 C0 1 0 2 0
0

0101000
+41 0 -40 0 *
Ve
1e-07
0 15 40
0 0

0101101
*
Ed
 1e-07 1 1 0
1  2 0 -37.5 12.5
2  2 1 0 -37.5 12.5
4 G1 1 0 3 0
0

0101000
+40 0 -38 0 *
Ve
1e-07
0 0 25
0 0

0101101
*
Ed
 1e-07 1 1 0
1  3 0 5.49778714378214 7.06858347057703
2  3 1 0 5.49778714378214 7.06858347057703
4 C0 1 0 4 0
0

0101000
+38 0 -36 0 *
Ed
 1e-07 1 1 0
1  4 0 -12.5 37.5
2  4 1 0 -12.5 37.5
4 G1 1 0 5 0
0

0101000
+36 0 -41 0 *
Wi

0101100
+39 0 +37 0 +35 0 +34 0 *
Fa
0  1e-07 1 0

0111000
+33 0 *
Ve
1e-07
50 50 40
0 0

0101101
*
Ed
 1e-07 1 1 0
1  5 0 15 50
4 C0 3 0 2 0
0

0101000
+40 0 -31 0 *
Ve
1e-07
0 50 40
0 0

0101101
*
Ed
 1e-07 1 1 0
1  6 0 0 50
4 C0 3 0 6 0
0

0101000
+31 0 -29 0 *
Ed
 1e-07 1 1 0
1  7 0 0 35
4 C0 3 0 4 0
0

0101000
+29 0 -38 0 *
Wi

0101100
-37 0 +30 0 +28 0 +27 0 *
Fa
0  1e-07 3 0

0111000
+26 0 *
Ve
1e-07
50 0 0
0 0

0101101
*
Ed
 1e-07 1 1 0
1  8 0 0 25
4 C0 2 0 5 0
0

0101000
+24 0 -41 0 *
Ve
1e-07
50 50 0
0 0

0101101
*
Ed
 1e-07 1 1 0
1  9 0 0 50
4 C0 2 0 7 0
0

0101000
+24 0 -22 0 *
Ed
 1e-07 1 1 0
1  10 0 0 40
4 C0 2 0 6 0
0

0101000
+22 0 -31 0 *
Wi

0101100
-39 0 -23 0 +21 0 +20 0 -30 0 *
Fa
0  1e-07 2 0

0111000
+19 0 *
Ve
1e-07
0 50 0
0 0

0101101
*
Ed
 1e-07 1 1 0
1  11 0 0 50
4 C0 6 0 7 0
0

0101000
+22 0 -17 0 *
Ed
 1e-07 1 1 0
1  12 0 0 40
4 C0 6 0 4 0
0

0101000
+17 0 -29 0 *
Wi

0101100
+16 0 +15 0 -28 0 -20 0 *
Fa
0  1e-07 6 0

0111000
+14 0 *
Ve
1e-07
0 0 0
0 0

0101101
*
Ed
 1e-07 1 1 0
1  13 0 0 25
4 C0 5 0 4 0
0

0101000
+12 0 -36 0 *
Ed
 1e-07 1 1 0
1  14 0 0 50
4 C0 5 0 7 0
0

0101000
+12 0 -24 0 *
Wi

0101100
-34 0 -11 0 +10 0 +23 0 *
Fa
0  1e-07 5 0

0111000
+9 0 *
Ed
 1e-07 1 1 0
1  15 0 0 50
4 C0 4 0 7 0
0

0101000
+17 0 -12 0 *
Wi

0101100
-35 0 -27 0 -15 0 +7 0 +11 0 *
Fa
0  1e-07 4 0

0111000
+6 0 *
Wi

0101100
-7 0 -16 0 -21 0 -10 0 *
Fa
0  1e-07 7 0

0111000
-4 0 *
Sh

0101100
+32 0 +25 0 +18 0 +13 0 +8 0 +5 0 -3 0 *
So

0100000
+2 0 *

